<svg id="Layer_1" data-name="Layer 1" xmlns="http://www.w3.org/2000/svg" viewBox="0 0 1920 1080"><defs><style>.cls-1{fill:#c1fd7a;}.cls-2{fill:#606060;}</style></defs><path d="M1269.51,789.23c-12.89-.39-27-6.46-25.23-18.19,1.11-7.45,17.88-13.62,28.57-18.08,4.57-1.9,11.56,2,16.65,3.15L1308.41,719c-2.69-8.75-5.55-18.08-8.9-29H1141.87c-7.84,24.12-8.4,53.58-40.46,62.12,51.64,35.55,93.61,77.05,125.15,128.73a99.87,99.87,0,0,1,8.73,18.28c10.65,30,0,52.22-30.62,59.79-15,3.71-31.31,4.31-46.86,3.45-14.27-.78-27.79-6.4-42.76-.15-5,2.07-14.25-3.42-20.26-7.42-8.47-5.64-15.06-14.22-23.7-19.49-9.68-5.89-22.29-9.17-19.82-23.69,2.5-14.76,14.34-17.23,28.63-14.9l-6-35.88,1.9-.47q3.06,9.69,6.1,19.39l3.6-1c-6.3-24.39-11-49.35-19.35-73-8.55-24.2-19.39-27.69,9.35-49.36L996.28,735c5.11,30.55-15.35,40.92-34.56,53.24-5.23,3.36-10.2,13.17-9.28,19.08,4.86,31.18,10.89,62.24,18.42,92.87,1.5,6.11,11.83,14.67,17.16,14.06,7.13-.83,17.33-8.42,19.15-15,4.11-15,4.62-31.19,5.27-46.95.9-21.47.47-43,.81-64.5.17-11,18.39-30.45,25.67-26,7.07,4.34,14,15.39,14.08,23.58.47,36.53,0,73.23-3.36,109.58-1.25,13.76-9,28.14-17.23,39.83-26.45,37.61-63.73,35.8-94.56,1.58-35.72-39.65-35.63-84.92-29.55-132.65.57-4.47,1.6-8.87,2.35-13.32.08-.5-.29-1.08-1.26-4.31-4.22,0-11.77-2.17-14,.35-13.22,15.19-31.9,13.2-48.52,16.18-11.74,2.1-14.5,6.9-14.29,17.74.74,38.47.76,77,1,115.43.06,10.34-13.1,27.12-22.2,26.88-16.46-.45-20.69-13.41-20.73-26-.11-37.3,1.36-74.6,2.18-111.9.1-4.49,0-9,0-15.15-12.28-.6-24-2.13-35.5-1.51-18.93,1-28.78-11.36-37.47-24.59-6.43-9.79.89-21.33,13.79-22.88,17.8-2.14,35.68-3.6,49.13-4.92,4.82-20.71,9.55-40.38,13.87-60.15a26.76,26.76,0,0,0,0-12.3c-2.55-9.39-8.2-18.41-8.71-27.79-2.34-43.49-3.44-87-4.73-130.6-.14-4.92,1.35-9.89,2.09-14.87-22.94-4.65-25.06-3-26,19.52-2.37,56-5.13,111.89-7.14,167.86-.39,11-3.26,16.26-15.26,16.52-24.17.52-48.33,2.35-73.77,3.7V510l-33.65-13.57c7,21.21-6.82,41.57,9.09,59.48,2.4,2.71,1.62,8.65,1.59,13.09-.13,20.37-.46,40.74-.81,61.1-.63,36.29-17.87,54.18-54.68,54.62-50.69.62-101.4.16-152.36.16V395.71c42.78,2,83.2,3.8,123.62,5.68,3.39.15,6.78.88,10.14.72,45.72-2.09,52.18,12.41,65.48,54.76,40-41.2,91.82-61.09,142.45-82.79,10.52-4.51,11.84-11.88,13.52-21,16.41-88.93,68.67-146.92,155.22-169.61,80-21,149.74,2.18,205.17,63.77,12.54,13.94,23.43,19.71,42.91,17.95,41.35-3.71,83.08-4.39,124.64-4,18.33.18,40.06,3.64,45.67,25.12,5.35,20.48-11.07,34.5-26.3,43.47-38.29,22.55-77.74,43.18-117.34,63.39-11,5.61-17.66,10.83-19.46,24.2-2.29,17.11-8.32,33.72-13.6,53.82,14.46,0,28.2-.09,41.94,0,18.07.16,36.36,2.36,54.16.29,26.48-3.09,36.19,15.05,47.69,32.48,2.57,3.89,6.77,8.35,10.92,9.22,13.21,2.79,26.75,4.1,40.17,5.83,22.68,2.93,31.76,15.42,29,38.11-4,33-7.25,66-11,100.22l22.74,1.72c4.56-31.84,9.13-62.43,13.26-93.09,3.22-23.9,15.25-34.38,39.61-33.2,9,.43,18,1.75,27,2.42s17.87,1,29.54,1.67c-3.06,25.5-5.75,49.92-9,74.26-8.45,63.86-17.18,127.67-25.69,191.52-2.41,18.07-26.53,36.92-44.61,34.51-9.89-1.32-19.78-2.69-29.41-4-1.44,23.88-1.61,46.4-4.44,68.59-3.56,27.85-15.94,50.22-44.21,61.15-4.26,1.65-6.51,8.86-9.38,13.68-2,3.39-3.51,7.1-6.76,13.83-6.79-25.59-6.79-25.59-14.57-27.71-8.8,17.58,9.53,37.8.85,55.26l-9.14-.18c-1.78-19-3.42-38-5.43-56.92-.41-3.82-1.31-8.13-3.48-11.13-23.28-32.17-25.74-68.72-18.73-105.49,3.34-17.49,1.25-31.16-7.8-45.3-3.58-5.61-5.79-12.1-9.67-20.41l-19,10.94Zm-284-295.94c-27.4-6.29-51.09,5.84-76.34,1.12-23.5-4.39-48.36-1.4-72.62-1.66-21.41-.22-40.68,18.62-40.18,40,.92,39.55,2.42,79.09,3.41,118.65.67,27,12.75,38.05,39.8,36.29,24.54-1.6,49.12-2.7,74.64-4.07V717c-12.54,1.14-24.27,3-36,2.83-4,0-10.4-4.6-11.28-8.18-2.75-11.18-8.82-14-19.41-12.74a134.36,134.36,0,0,1-27,.4c-13.35-1.15-17.91,6.75-20,17.65-.73,3.85-.49,7.89-.65,11.85-1,26.6,0,27.37,25.67,25.56,23.55-1.67,47.13-2.81,71-4.19,1.55,4.15,3,7.7,4.19,11.35s2,7.36,3.15,11.84c4.49-.69,9-.17,11.93-2,26.9-16.93,26.82-17,48.47-.17,15.64-7.44,20.44-19.72,20.36-36.94-.38-73.48.49-147,.89-220.46C985.52,507.08,985.49,500.44,985.49,493.29ZM444.23,408.12v263.3c52.15,0,102.83,1.14,153.37-1,9.83-.41,26.26-12.61,27.35-21,3.66-28.36,7.46-59,0-85.65-4.58-16.3-6.91-30-6-46.51,1.27-22.42-1.51-45.1-2.82-67.65-.78-13.57-16.24-33.65-27.56-34.3C541.39,412.63,494.16,410.56,444.23,408.12Zm948.45,354.72c6.17,11.8,15.12,22.06,16.64,33.33,3.11,23,17.09,26.82,36,28,22.21,1.4,35.6-9.22,38.56-31.86,6.29-48.12,13-96.19,19.41-144.3,4.28-32.31,8.23-64.65,12.56-98.76-17.91-1.81-34.12-5.24-50-4.19-6.62.43-14,9.53-18.42,16.38-3.35,5.21-2.59,13.09-3.58,19.8-4.43,30-8.83,60-13.48,91.64l-46.63-3.81c4.2-39.87,7.88-76.9,12.11-113.88,1.27-11.1-1.56-20.05-12.67-22.34-16.91-3.48-34.22-5-52.26-7.45-5,53.59-9.78,105.26-14.72,156.92-2.8,29.36,6,40.32,35.28,42.71,23.4,1.91,46.84,3.41,72.23,5.24-1.52,12.28-2.79,22.5-4,32.55ZM1128.2,584.12h.76c0,21.46-.1,42.92,0,64.38.12,18,8.71,29.09,26.6,29.28,45.64.51,91.3-.28,136.93-1.46,4.07-.11,11.11-6.55,11.46-10.53,4.46-50,8.41-100.08,11.42-150.2,1-16.55-14-30.12-30.23-30.49-40.57-.93-81.14-2-121.7-2.92-26.51-.59-35.25,8.4-35.27,35.86Q1128.19,551.07,1128.2,584.12ZM1001.57,448.41c-19,15.9-2.5,30.25-2.65,44.91-.75,71.29-1,142.57-2,213.85-.15,11.35,2.57,17.32,14.88,19.72,19.33,3.77,38.2,9.86,57.28,14.92,32.65,8.65,66.91-23.42,60.32-56.66-.47-2.34-3.65-4-4.88-6.33-3.12-5.91-8.13-11.94-8.36-18.08-1.15-30.52-1.43-61.09-1.09-91.63.12-10.84-2.18-16.27-14.21-17.61-18.23-2-36.21-6.26-55.79-9.82,5-21.75,9.29-41.59,14.28-61.24,2.4-9.46.47-14.43-9.7-17.09C1032.84,458.94,1016.37,453.08,1001.57,448.41ZM676.28,702.05c16.58,0,32.31-.63,48,.2,12,.64,15.33-4.62,15.72-15.71,1.19-33.82,3.66-67.59,4.74-101.41.78-24.58.15-49.22.15-74.55H676.28Zm594.81-377.11c-86.35,48.82-181.8,76.15-276.34,107.32,11.22,2.73,22.93,5.56,32.56,2.28,70.83-24.17,141.84-48,211.52-75.26,31.15-12.16,59.73-31.24,88.69-48.5,6.19-3.69,9-13.11,13.33-19.89-7.31-3.53-14.66-10.17-21.93-10.09-40.46.4-80.93,2-121.35,4.16-12.75.68-17.63,8.19-12,21.24a149.86,149.86,0,0,1,9.49,28.89c3,14.88,10.42,16.59,23.11,11C1235.54,338.52,1253.42,332,1271.09,324.94ZM1108.28,812c6.23,35.27,11.61,66.86,17.6,98.34.83,4.38,3.8,10.7,7.22,11.85,21.87,7.4,44.07,13.92,67.62,7.44,9.33-2.58,12.07-7.42,6.85-16-6.14-10.09-11.59-20.66-18.45-30.22C1168.25,854.26,1143.09,829.86,1108.28,812ZM677.85,437.78c0,15.87,1,28.87-.28,41.63-1.22,12.17,5.72,20.39,14.56,21.1,14.86,1.19,36.2,3.13,43.68-5.23,9.87-11,9.58-31.64,12.13-48.37.36-2.36-7.85-8.46-12.31-8.7C717.3,437.2,698.89,437.78,677.85,437.78Zm313.5-4c-78.58,13.54-151.72,26-224.73,39.13-4.12.74-7.23,7.05-10.82,10.77l3.68,3.78A1380.78,1380.78,0,0,0,978,447.26C982.42,446.07,985.46,439.94,991.35,433.79ZM760.9,467.72c8.68-1.28,15.87-2.28,23-3.41,9.57-1.51,13.81-6.77,11.46-16.61-3.12-13.13-5-26.71-9.86-39.17-1.7-4.42-11.62-9.83-15.63-8.45-16.63,5.68-32.43,13.79-52.35,22.71C757.16,426.43,764.25,432.87,760.9,467.72Zm553.17,333.61c1.23-.59,2.73-.79,3.09-1.54,10.25-21.27,23.55-38.95,48.47-44.37,2.11-.46,5.17-6.92,4.23-8.82-1.88-3.79-5.85-8.31-9.64-9.05-11.52-2.25-23.41-4.12-35-3.56-5.87.29-14.69,4.87-16.62,9.72C1300.76,763.33,1297.52,783.55,1314.07,801.33ZM1041.09,228l-41.55,10.1,11.52,42.32,41.52-11.73C1049.1,256.34,1044.94,241.61,1041.09,228Zm340.28,631.72c4-34.29-1.77-39.6-35.53-32.85-1.2,10.47-2.42,21.07-3.63,31.67l5.93.48q.77-11.07,1.52-22.14l2.46.07v22.77Zm-22.45,77.48,8.22,6.71c2.61-5.43,6-10.63,7.65-16.34,3.5-12.37,6.32-25,8.84-37.58.55-2.74-1.31-6-2.05-9-3.29,1.25-7.12,1.8-9.76,3.87C1353.79,899,1357.86,918.5,1358.92,937.19Zm-699-447.67,4.81-2.9V455.84l-3.53-2.56c-5.39,7.65-12.07,14.8-15.3,23.27C645,478.77,654.94,485.09,659.9,489.52ZM1061.44,309.3c1.56,7.81,2.86,14.3,4.14,20.73l21.1-6.45c-1.71-7.14-3.32-13.92-5.09-21.32Zm31-29.95,19.42-6.32c-1.82-6.62-3.44-12.52-5.15-18.76l-20,4.79C1088.71,265.94,1090.36,271.84,1092.47,279.35Zm285.25,533.07c-4.21-9-7.37-15.73-11.41-24.36C1355.76,809.12,1356.67,811.23,1377.72,812.42Z"/><path d="M680.53,789.32c1.29-8.64-2.56-25.84,16.6-23.51,17,2.06,13.87,18,13.91,30,.06,21.93-.51,43.88-1.41,65.79-.16,3.72-2.45,9.37-5.2,10.46-3.24,1.27-8.73-.47-12-2.74-2.91-2-5.26-6.35-5.86-10-5.73-35.1-33.77-44.55-63.41-53,3.73,4.11,7.39,8.29,11.21,12.33,4.26,4.5,8.85,8.71,13,13.34,19.74,22.18,44.09,40.77,53.75,70.74,9.57,29.71-5,54.88-36.08,57.13-18,1.3-36.41-2.86-56.77-4.76l-14.89,10.26C589.23,958.91,582.8,953,581.31,946c-7.06-33.06-12.85-66.39-18.88-99.66-.69-3.82-1.53-8.78.23-11.66,3.72-6.11,9.12-11.2,13.83-16.71,5,4.4,12.53,7.9,14.52,13.4,4.37,12.07,5.46,25.29,8.8,37.8,3.05,11.39,6.05,23.09,11.3,33.52,10.85,21.53,33.69,30.27,56,21.17,14.61-6,7.89-17.78,1.85-24.91-18.18-21.47-37.69-41.81-56.94-62.35-13.84-14.77-28.74-28.62-41.91-44-7.58-8.83-11-20-3.11-31.24,7.61-10.84,18.83-10.39,29-6.52C624.05,765.58,651.68,777.47,680.53,789.32Z"/><path d="M1269,789.51c12,5.83,16.34,14.81,15.3,28.54a204.15,204.15,0,0,0,3.39,55.67V818.88c2.59,40.26,3.52,76,7.76,111.33,2,17.13-7.78,23.34-18.64,28.86-8.9,4.52-27.88-8.23-28.64-20.74-2.52-41.08-4.56-82.34-3.16-123.4.3-8.81,15.84-17.09,24.42-25.66Zm-15.61,90.33h2.76v-53h-2.76Z"/><path d="M1546.31,499.94c2,8.27,3.9,15.75,5.93,23.93-19.85,5.11-11.64-14.19-21.8-19.67-2.52,4.17-5.36,9.83-9.17,14.72-1.55,2-5.22,2.33-7.92,3.42-1-3.16-3.52-6.91-2.61-9.36,2.49-6.7,6.45-12.85,10.42-20.34l-27.92,3.44c-1.06-9.29-1.06-9.29,23.5-16.33-5.36-4.08-10-6.9-13.72-10.7-3-3.1-4.81-7.37-7.14-11.12,4.26.24,8.69-.17,12.73.91s7.74,3.68,11.92,5.78c.79-9,1.5-17,2.21-25,2.76,3.56,6,6.86,8.14,10.76s3.18,8.28,5.47,14.57c4.56-7.18,7.75-13,11.79-18.14,1.61-2.06,5.1-2.65,7.73-3.92.77,2.91,2.9,6.33,2,8.63-2.33,6.21-5.92,11.94-10.7,21.1,8.3-1.69,13.5-3.64,18.66-3.52,4.07.08,8.09,2.7,12.13,4.2-3,2.62-5.56,6-9,7.66-3.83,1.86-8.4,2.18-16.59,4.08l23.07,16.65C1564.11,518.53,1556.74,498.67,1546.31,499.94Z"/><path class="cls-1" d="M985.49,493.29c0,7.15,0,13.79,0,20.43-.4,73.49-1.27,147-.89,220.46.08,17.22-4.72,29.5-20.36,36.94-21.65-16.88-21.57-16.76-48.47.17-3,1.87-7.44,1.35-11.93,2-1.18-4.48-2-8.21-3.15-11.84s-2.64-7.2-4.19-11.35c-23.83,1.38-47.41,2.52-71,4.19-25.71,1.81-26.7,1-25.67-25.56.16-4-.08-8,.65-11.85,2.06-10.9,6.62-18.8,20-17.65a134.36,134.36,0,0,0,27-.4c10.59-1.25,16.66,1.56,19.41,12.74.88,3.58,7.32,8.13,11.28,8.18,11.71.17,23.44-1.69,36-2.83V683.63c-25.52,1.37-50.1,2.47-74.64,4.07-27,1.76-39.13-9.26-39.8-36.29-1-39.56-2.49-79.1-3.41-118.65-.5-21.39,18.77-40.23,40.18-40,24.26.26,49.12-2.73,72.62,1.66C934.4,499.13,958.09,487,985.49,493.29ZM865.59,626.62c14.36,0,26.21.65,37.9-.4,3.53-.32,9.4-5.27,9.5-8.28.81-22.37.44-44.78.44-68.91l-47.84,3.77Z"/><path class="cls-1" d="M444.23,408.12c49.93,2.44,97.16,4.51,144.35,7.24,11.32.65,26.78,20.73,27.56,34.3,1.31,22.55,4.09,45.23,2.82,67.65-.94,16.53,1.39,30.21,6,46.51,7.48,26.62,3.68,57.29,0,85.65-1.09,8.36-17.52,20.56-27.35,21-50.54,2.12-101.22,1-153.37,1Zm117.33,205V566.15l-50.27-8.09V621ZM509,459.66c0,16.14-.51,29,.35,41.8.22,3.27,4.36,8.31,7.44,9,12.31,2.61,24.91,3.8,37.91,5.59,0-15,.51-27.85-.35-40.63-.23-3.34-4.23-8.47-7.35-9.22C535.15,463.31,523,461.91,509,459.66Z"/><path class="cls-1" d="M1392.68,762.84h27c1.25-10.05,2.52-20.27,4-32.55-25.39-1.83-48.83-3.33-72.23-5.24-29.3-2.39-38.08-13.35-35.28-42.71,4.94-51.66,9.7-103.33,14.72-156.92,18,2.47,35.35,4,52.26,7.45,11.11,2.29,13.94,11.24,12.67,22.34-4.23,37-7.91,74-12.11,113.88l46.63,3.81c4.65-31.65,9.05-61.65,13.48-91.64,1-6.71.23-14.59,3.58-19.8,4.41-6.85,11.8-16,18.42-16.38,15.92-1.05,32.13,2.38,50,4.19-4.33,34.11-8.28,66.45-12.56,98.76-6.37,48.11-13.12,96.18-19.41,144.3-3,22.64-16.35,33.26-38.56,31.86-18.93-1.2-32.91-5-36-28C1407.8,784.9,1398.85,774.64,1392.68,762.84Z"/><path class="cls-1" d="M1128.2,584.12q0-33,0-66.08c0-27.46,8.76-36.45,35.27-35.86,40.56.9,81.13,2,121.7,2.92,16.23.37,31.23,13.94,30.23,30.49-3,50.12-7,100.19-11.42,150.2-.35,4-7.39,10.42-11.46,10.53-45.63,1.18-91.29,2-136.93,1.46-17.89-.19-26.48-11.23-26.6-29.28-.13-21.46,0-42.92,0-64.38Zm116.71,44.41c0-20.18-.13-37,0-53.92.38-40.52.44-40.54-40.58-38.51-1.52.08-3,1.16-4.46,1.76v87.37Z"/><path class="cls-1" d="M1001.57,448.41c14.8,4.67,31.27,10.53,48.12,14.94,10.17,2.66,12.1,7.63,9.7,17.09-5,19.65-9.25,39.49-14.28,61.24,19.58,3.56,37.56,7.78,55.79,9.82,12,1.34,14.33,6.77,14.21,17.61-.34,30.54-.06,61.11,1.09,91.63.23,6.14,5.24,12.17,8.36,18.08,1.23,2.33,4.41,4,4.88,6.33,6.59,33.24-27.67,65.31-60.32,56.66-19.08-5.06-37.95-11.15-57.28-14.92-12.31-2.4-15-8.37-14.88-19.72.93-71.28,1.21-142.56,2-213.85C999.07,478.66,982.54,464.31,1001.57,448.41Zm11.58,220.89c14.29,3.42,25.62,7.09,37.22,8.39,4.09.46,11.8-4.09,12.77-7.71a495.88,495.88,0,0,0,10.68-53.12c.53-3.49-3-10.22-6-11.15-11.53-3.57-23.6-5.39-36.12-8C1025.23,622.82,1019.44,645.08,1013.15,669.3Z"/><path class="cls-1" d="M676.28,702.05V510.58h68.56c0,25.33.63,50-.15,74.55-1.08,33.82-3.55,67.59-4.74,101.41-.39,11.09-3.68,16.35-15.72,15.71C708.59,701.42,692.86,702.05,676.28,702.05Z"/><path class="cls-1" d="M677.85,437.78c21,0,39.45-.58,57.78.43,4.46.24,12.67,6.34,12.31,8.7-2.55,16.73-2.26,37.32-12.13,48.37-7.48,8.36-28.82,6.42-43.68,5.23-8.84-.71-15.78-8.93-14.56-21.1C678.85,466.65,677.85,453.65,677.85,437.78Z"/><path class="cls-1" d="M1314.07,801.33c-16.55-17.78-13.31-38-5.51-57.62,1.93-4.85,10.75-9.43,16.62-9.72,11.63-.56,23.52,1.31,35,3.56,3.79.74,7.76,5.26,9.64,9.05.94,1.9-2.12,8.36-4.23,8.82-24.92,5.42-38.22,23.1-48.47,44.37C1316.8,800.54,1315.3,800.74,1314.07,801.33Z"/><path class="cls-2" d="M1041.09,228c3.85,13.62,8,28.35,11.49,40.69l-41.52,11.73-11.52-42.32Z"/><path class="cls-2" d="M1061.44,309.3l20.15-7c1.77,7.4,3.38,14.18,5.09,21.32l-21.1,6.45C1064.3,323.6,1063,317.11,1061.44,309.3Z"/><path class="cls-2" d="M1092.47,279.35c-2.11-7.51-3.76-13.41-5.69-20.29l20-4.79c1.71,6.24,3.33,12.14,5.15,18.76Z"/><path class="cls-1" d="M1377.72,812.42c-21-1.19-22-3.3-11.41-24.36C1370.35,796.69,1373.51,803.45,1377.72,812.42Z"/><path d="M865.59,626.62V552.8L913.43,549c0,24.13.37,46.54-.44,68.91-.1,3-6,8-9.5,8.28C891.8,627.27,880,626.62,865.59,626.62ZM899.5,614c5.89-42.21,3.71-47.24-20.78-49.58V614Z"/><path d="M561.56,613.09,511.29,621v-62.9l50.27,8.09Zm-39.08-6.94c26.75-2.54,30.88-5.35,27.13-22.12-3.47-15.51-16.45-9.38-27.13-10.16Z"/><path d="M509,459.66c14,2.25,26.15,3.65,38,6.51,3.12.75,7.12,5.88,7.35,9.22.86,12.78.35,25.66.35,40.63-13-1.79-25.6-3-37.91-5.59-3.08-.66-7.22-5.7-7.44-9C508.49,488.68,509,475.8,509,459.66ZM540.2,501c4.49-24.44,2.68-26.79-18-24.37v22.27Z"/><path d="M1244.91,628.53l-45-3.3V537.86c1.47-.6,2.94-1.68,4.46-1.76,41-2,41-2,40.58,38.51C1244.78,591.48,1244.91,608.35,1244.91,628.53Zm-32.88-15h19.89V550H1212Z"/><path d="M1013.15,669.3c6.29-24.22,12.08-46.48,18.6-71.59,12.52,2.61,24.59,4.43,36.12,8,3,.93,6.48,7.66,6,11.15A495.88,495.88,0,0,1,1063.14,670c-1,3.62-8.68,8.17-12.77,7.71C1038.77,676.39,1027.44,672.72,1013.15,669.3Zm15.56-9.23L1052,663.7c3.09-14.35,6.44-26.26,7.76-38.39.38-3.46-4.6-9.91-8.11-10.73-3.79-.88-11.58,2.24-12.66,5.35C1034.63,632.37,1032.23,645.49,1028.71,660.07Z"/></svg>